# Blender 3.6.2
# www.blender.org
mtllib cylinder_fixed.mtl
o cylinder1
v 0.577350 0.577350 -0.000000
v 0.533402 0.577350 0.220942
v 0.408248 0.577350 0.408248
v 0.220942 0.577350 0.533402
v 0.000000 0.577350 0.577350
v -0.220942 0.577350 0.533402
v -0.408248 0.577350 0.408248
v -0.533402 0.577350 0.220942
v -0.577350 0.577350 -0.000000
v -0.533402 0.577350 -0.220942
v -0.408248 0.577350 -0.408248
v -0.220942 0.577350 -0.533402
v -0.000000 0.577350 -0.577350
v 0.220942 0.577350 -0.533402
v 0.408248 0.577350 -0.408248
v 0.533402 0.577350 -0.220942
v 0.577350 -0.577350 0.000000
v 0.533402 -0.577350 0.220942
v 0.408248 -0.577350 0.408248
v 0.220942 -0.577350 0.533402
v 0.000000 -0.577350 0.577350
v -0.220942 -0.577350 0.533402
v -0.408248 -0.577350 0.408248
v -0.533402 -0.577350 0.220942
v -0.577350 -0.577350 0.000000
v -0.533402 -0.577350 -0.220942
v -0.408248 -0.577350 -0.408248
v -0.220942 -0.577350 -0.533402
v -0.000000 -0.577350 -0.577350
v 0.220942 -0.577350 -0.533402
v 0.408248 -0.577350 -0.408248
v 0.533402 -0.577350 -0.220942
vn -0.0000 1.0000 -0.0000
vn 0.9808 -0.0000 -0.1951
vn 0.9808 -0.0000 0.1951
vn 0.8315 -0.0000 0.5556
vn 0.5556 -0.0000 0.8315
vn 0.1951 -0.0000 0.9808
vn -0.1951 -0.0000 0.9808
vn -0.5556 -0.0000 0.8315
vn -0.8315 -0.0000 0.5556
vn -0.9808 -0.0000 0.1951
vn -0.9808 -0.0000 -0.1951
vn -0.8315 -0.0000 -0.5556
vn -0.5556 -0.0000 -0.8315
vn -0.1951 -0.0000 -0.9808
vn 0.1951 -0.0000 -0.9808
vn 0.5556 -0.0000 -0.8315
vn 0.8315 -0.0000 -0.5556
vn -0.0000 -1.0000 -0.0000
s 0
usemtl default
f 1//1 16//1 2//1
f 1//2 17//2 16//2
f 2//1 16//1 3//1
f 2//3 17//3 1//3
f 2//4 19//4 18//4
f 3//1 15//1 4//1
f 3//4 19//4 2//4
f 4//1 14//1 5//1
f 4//5 19//5 3//5
f 4//6 21//6 20//6
f 5//1 13//1 6//1
f 5//6 21//6 4//6
f 6//1 12//1 7//1
f 6//7 21//7 5//7
f 6//8 23//8 22//8
f 7//1 11//1 8//1
f 7//8 23//8 6//8
f 8//1 10//1 9//1
f 8//9 23//9 7//9
f 8//10 25//10 24//10
f 9//10 25//10 8//10
f 10//1 8//1 11//1
f 10//11 25//11 9//11
f 10//12 27//12 26//12
f 11//1 7//1 12//1
f 11//12 27//12 10//12
f 12//1 6//1 13//1
f 12//13 27//13 11//13
f 12//14 29//14 28//14
f 13//1 5//1 14//1
f 13//14 29//14 12//14
f 14//1 4//1 15//1
f 14//15 29//15 13//15
f 14//16 31//16 30//16
f 15//1 3//1 16//1
f 15//16 31//16 14//16
f 16//2 17//2 32//2
f 16//17 31//17 15//17
f 18//3 17//3 2//3
f 18//18 32//18 17//18
f 19//18 31//18 18//18
f 20//5 19//5 4//5
f 20//18 30//18 19//18
f 21//18 29//18 20//18
f 22//7 21//7 6//7
f 22//18 28//18 21//18
f 23//18 27//18 22//18
f 24//9 23//9 8//9
f 24//18 26//18 23//18
f 25//18 26//18 24//18
f 26//11 25//11 10//11
f 27//18 23//18 26//18
f 28//18 22//18 27//18
f 28//13 27//13 12//13
f 29//18 21//18 28//18
f 30//18 20//18 29//18
f 30//15 29//15 14//15
f 31//18 19//18 30//18
f 32//18 18//18 31//18
f 32//17 31//17 16//17
